# xmcd
#
# Track frame offsets:
#  150
#  16179
#  37855
#  58804
#  86570
#  104508
#  125696
#  142944
#  169508
#  192660
#  219328
#  246550
#  258085
#
# Disc length: 3926 seconds
#
# Revision: 0
# Processed by: cddbd v1.5.1PL0 Copyright (c) Steve Scherf et al.
# Submitted via: Collectorz.com_Music_Collector 6.9
#
DISCID=b30f540d
DTITLE=Eddie "Vaan" Shaw - Give Me Time
DYEAR=2005
DGENRE=Blues -  Blues Chicago -  Blues Guitar
TTITLE0=Give Me Time
TTITLE1=Bull Shit Blues
TTITLE2=Ugly Woman
TTITLE3=I Need Your Love
TTITLE4=Ain't No Next Time
TTITLE5=Down Your Eyes
TTITLE6=Try Me One More Time
TTITLE7=I'm Crazy Now
TTITLE8=Key To The Highway
TTITLE9=Morning Rain
TTITLE10=It Hurts Me Too
TTITLE11=Shake Your Money Maker
TTITLE12=Last Night
EXTD=
EXTT0=
EXTT1=
EXTT2=
EXTT3=
EXTT4=
EXTT5=
EXTT6=
EXTT7=
EXTT8=
EXTT9=
EXTT10=
EXTT11=
EXTT12=
PLAYORDER=
